HIERARCHY
ROOT Hips
{
	OFFSET -14.64140 90.27770 -84.91600
	CHANNELS 6 Xposition Yposition Zposition Zrotation Xrotation Yrotation
	JOINT Spine
	{
		OFFSET 0.00000 13.20850 -1.60436
		CHANNELS 3 Zrotation Xrotation Yrotation
		JOINT Spine1
		{
			OFFSET 0.00000 8.61716 0.00000
			CHANNELS 3 Zrotation Xrotation Yrotation
			JOINT Spine2
			{
				OFFSET 0.00000 8.61717 0.00000
				CHANNELS 3 Zrotation Xrotation Yrotation
				JOINT Spine3
				{
					OFFSET 0.00000 8.61717 0.00000
					CHANNELS 3 Zrotation Xrotation Yrotation
					JOINT Neck
					{
						OFFSET 0.00000 11.07920 1.10792
						CHANNELS 3 Zrotation Xrotation Yrotation
						JOINT Neck1
						{
							OFFSET 0.00000 7.08032 0.00000
							CHANNELS 3 Zrotation Xrotation Yrotation
							JOINT Head
							{
								OFFSET 0.00000 7.08031 0.00000
								CHANNELS 3 Zrotation Xrotation Yrotation
								End site
								{
									OFFSET 0.00000 0.00000 0.00000
								}
							}
						}
					}
					JOINT RightShoulder
					{
						OFFSET -0.01000 7.91373 5.19711
						CHANNELS 3 Zrotation Xrotation Yrotation
						JOINT RightArm
						{
							OFFSET -18.41580 0.00000 0.00000
							CHANNELS 3 Zrotation Xrotation Yrotation
							JOINT RightForeArm
							{
								OFFSET -29.11090 0.00000 0.00000
								CHANNELS 3 Zrotation Xrotation Yrotation
								JOINT RightHand
								{
									OFFSET -24.65040 0.00000 0.00000
									CHANNELS 3 Zrotation Xrotation Yrotation
									JOINT RightHandThumb1
									{
										OFFSET -5.35114 -0.85590 3.97906
										CHANNELS 3 Zrotation Xrotation Yrotation
										JOINT RightHandThumb2
										{
											OFFSET -4.52789 0.00000 0.00000
											CHANNELS 3 Zrotation Xrotation Yrotation
											JOINT RightHandThumb3
											{
												OFFSET -2.46976 0.00000 0.00000
												CHANNELS 3 Zrotation Xrotation Yrotation
												End site
												{
													OFFSET 0.00000 0.00000 0.00000
												}
											}
										}
									}
									JOINT RightHandIndex1
									{
										OFFSET -14.26970 0.00000 2.88139
										CHANNELS 3 Zrotation Xrotation Yrotation
										JOINT RightHandIndex2
										{
											OFFSET -5.48836 0.00000 0.00000
											CHANNELS 3 Zrotation Xrotation Yrotation
											JOINT RightHandIndex3
											{
												OFFSET -3.01859 0.00000 0.00000
												CHANNELS 3 Zrotation Xrotation Yrotation
												End site
												{
													OFFSET 0.00000 0.00000 0.00000
												}
											}
										}
									}
									JOINT RightHandMiddle1
									{
										OFFSET -14.26970 0.00000 -0.09147
										CHANNELS 3 Zrotation Xrotation Yrotation
										JOINT RightHandMiddle2
										{
											OFFSET -6.17441 0.00000 0.00000
											CHANNELS 3 Zrotation Xrotation Yrotation
											JOINT RightHandMiddle3
											{
												OFFSET -3.56743 0.00000 0.00000
												CHANNELS 3 Zrotation Xrotation Yrotation
												End site
												{
													OFFSET 0.00000 0.00000 0.00000
												}
											}
										}
									}
									JOINT RightHandRing1
									{
										OFFSET -12.69180 0.00000 -3.06433
										CHANNELS 3 Zrotation Xrotation Yrotation
										JOINT RightHandRing2
										{
											OFFSET -5.62556 0.00000 0.00000
											CHANNELS 3 Zrotation Xrotation Yrotation
											JOINT RightHandRing3
											{
												OFFSET -3.56744 0.00000 0.00000
												CHANNELS 3 Zrotation Xrotation Yrotation
												End site
												{
													OFFSET 0.00000 0.00000 0.00000
												}
											}
										}
									}
									JOINT RightHandPinky1
									{
										OFFSET -11.11390 0.00000 -6.03719
										CHANNELS 3 Zrotation Xrotation Yrotation
										JOINT RightHandPinky2
										{
											OFFSET -4.52789 0.00000 0.00000
											CHANNELS 3 Zrotation Xrotation Yrotation
											JOINT RightHandPinky3
											{
												OFFSET -2.46976 0.00000 0.00000
												CHANNELS 3 Zrotation Xrotation Yrotation
												End site
												{
													OFFSET 0.00000 0.00000 0.00000
												}
											}
										}
									}
								}
							}
						}
					}
					JOINT LeftShoulder
					{
						OFFSET 0.01000 7.91373 5.19711
						CHANNELS 3 Zrotation Xrotation Yrotation
						JOINT LeftArm
						{
							OFFSET 18.41580 0.00000 0.00000
							CHANNELS 3 Zrotation Xrotation Yrotation
							JOINT LeftForeArm
							{
								OFFSET 29.11090 0.00000 0.00000
								CHANNELS 3 Zrotation Xrotation Yrotation
								JOINT LeftHand
								{
									OFFSET 24.65040 0.00000 0.00000
									CHANNELS 3 Zrotation Xrotation Yrotation
									JOINT LeftHandThumb1
									{
										OFFSET 5.35114 -0.85590 3.97906
										CHANNELS 3 Zrotation Xrotation Yrotation
										JOINT LeftHandThumb2
										{
											OFFSET 4.52789 0.00000 0.00000
											CHANNELS 3 Zrotation Xrotation Yrotation
											JOINT LeftHandThumb3
											{
												OFFSET 2.46977 0.00000 0.00000
												CHANNELS 3 Zrotation Xrotation Yrotation
												End site
												{
													OFFSET 0.00000 0.00000 0.00000
												}
											}
										}
									}
									JOINT LeftHandIndex1
									{
										OFFSET 14.26970 0.00000 2.88139
										CHANNELS 3 Zrotation Xrotation Yrotation
										JOINT LeftHandIndex2
										{
											OFFSET 5.48836 0.00000 0.00000
											CHANNELS 3 Zrotation Xrotation Yrotation
											JOINT LeftHandIndex3
											{
												OFFSET 3.01859 0.00000 0.00000
												CHANNELS 3 Zrotation Xrotation Yrotation
												End site
												{
													OFFSET 0.00000 0.00000 0.00000
												}
											}
										}
									}
									JOINT LeftHandMiddle1
									{
										OFFSET 14.26970 0.00000 -0.09147
										CHANNELS 3 Zrotation Xrotation Yrotation
										JOINT LeftHandMiddle2
										{
											OFFSET 6.17440 0.00000 0.00000
											CHANNELS 3 Zrotation Xrotation Yrotation
											JOINT LeftHandMiddle3
											{
												OFFSET 3.56744 0.00000 0.00000
												CHANNELS 3 Zrotation Xrotation Yrotation
												End site
												{
													OFFSET 0.00000 0.00000 0.00000
												}
											}
										}
									}
									JOINT LeftHandRing1
									{
										OFFSET 12.69180 0.00000 -3.06433
										CHANNELS 3 Zrotation Xrotation Yrotation
										JOINT LeftHandRing2
										{
											OFFSET 5.62556 0.00000 0.00000
											CHANNELS 3 Zrotation Xrotation Yrotation
											JOINT LeftHandRing3
											{
												OFFSET 3.56744 0.00000 0.00000
												CHANNELS 3 Zrotation Xrotation Yrotation
												End site
												{
													OFFSET 0.00000 0.00000 0.00000
												}
											}
										}
									}
									JOINT LeftHandPinky1
									{
										OFFSET 11.11390 0.00000 -6.03719
										CHANNELS 3 Zrotation Xrotation Yrotation
										JOINT LeftHandPinky2
										{
											OFFSET 4.52789 0.00000 0.00000
											CHANNELS 3 Zrotation Xrotation Yrotation
											JOINT LeftHandPinky3
											{
												OFFSET 2.46976 0.00000 0.00000
												CHANNELS 3 Zrotation Xrotation Yrotation
												End site
												{
													OFFSET 0.00000 0.00000 0.00000
												}
											}
										}
									}
								}
							}
						}
					}
					JOINT pCube4
					{
						OFFSET 0.00000 10.91090 1.10792
						CHANNELS 3 Zrotation Xrotation Yrotation
						End site
						{
							OFFSET 0.00000 0.00000 0.00000
						}
					}
				}
			}
		}
	}
	JOINT RightUpLeg
	{
		OFFSET -9.98441 0.00000 0.00000
		CHANNELS 3 Zrotation Xrotation Yrotation
		JOINT RightLeg
		{
			OFFSET 0.00000 -42.11790 0.00000
			CHANNELS 3 Zrotation Xrotation Yrotation
			JOINT RightFoot
			{
				OFFSET 0.00000 -45.00020 -0.00001
				CHANNELS 3 Zrotation Xrotation Yrotation
				JOINT RightForeFoot
				{
					OFFSET 0.00000 -3.74820 0.00000
					CHANNELS 3 Zrotation Xrotation Yrotation
					JOINT RightToeBase
					{
						OFFSET 0.00000 0.06325 14.43120
						CHANNELS 3 Zrotation Xrotation Yrotation
						End site
						{
							OFFSET 0.00000 0.00000 0.00000
						}
					}
				}
			}
		}
	}
	JOINT LeftUpLeg
	{
		OFFSET 9.98441 0.00000 0.00000
		CHANNELS 3 Zrotation Xrotation Yrotation
		JOINT LeftLeg
		{
			OFFSET 0.00000 -42.11800 0.00000
			CHANNELS 3 Zrotation Xrotation Yrotation
			JOINT LeftFoot
			{
				OFFSET 0.00000 -45.00070 0.00000
				CHANNELS 3 Zrotation Xrotation Yrotation
				JOINT LeftForeFoot
				{
					OFFSET 0.00000 -3.74824 0.00000
					CHANNELS 3 Zrotation Xrotation Yrotation
					JOINT LeftToeBase
					{
						OFFSET 0.00000 0.06325 14.43110
						CHANNELS 3 Zrotation Xrotation Yrotation
						End site
						{
							OFFSET 0.00000 0.00000 0.00000
						}
					}
				}
			}
		}
	}
}
MOTION
Frames: 4
Frame Time: 0.050000
0.013459042479709242 -0.004605780509229633 -0.018837428077531738 -0.02588651383695001 0.01422414912050295 -0.03953529882308671 1.363486839975122 4.003525033326155 -1.5751615671283195 -0.5182333131550632 4.055695670105262 0.2878523927456804 -0.5643299706800545 -1.4267810700994414 0.6753673569320912 -1.355149066855025 -0.6783914858134522 -0.3083028857982887 -1.2313319030225212 12.904999612510743 1.3526837450882443 0.33670492773571215 -2.104135075827444 3.2969515742664623 0.15153546316863098 -19.10215301561905 0.19212889097563748 -4.867401379668901 2.051346847262042 -16.29045965982905 78.75847751823574 9.429394318671058 -1.6708548439242914 0.5575789213143449 3.2407902817309466 52.864186139129956 25.507590746927345 -0.34311423041948075 -2.72959692409217 4.535356503366175 -0.14246107135590672 -1.6193462301325896 -0.03301941574654837 0.032713066036194643 -56.27117954858807 0.0327258508965279 -0.03934015505517309 -56.22681656673803 -38.76120153537272 0.018242934917523802 -0.020597042211062795 0.006209967921536341 0.008619141716299291 0.013253575518929485 -0.021629372197936265 -0.03575473626976685 -0.0487256755501194 -36.72368466299095 -0.03987537127147159 -0.03258819525639061 0.013925810575477938 -0.017850909775707927 0.011567954995163911 -0.0341485443210881 -0.015896398501000174 0.021975127034955175 -19.738715052595424 0.02740216308623585 0.011290541100771302 -0.0020201415550486802 0.04074221872779455 0.022520549937867854 0.027569147271056065 0.010513340069997837 -0.03894626011886967 24.072741509907615 0.047333365574408065 0.04284947438960319 28.850189568345044 -0.004055286855363219 -0.04657195998085212 28.851672874651978 0.006925904901729084 -0.036691218213312074 8.18183185707021 2.002539803446664 14.984247346846706 -78.46712581829993 16.34272433344765 -12.058421840334027 -1.3127643724526294 12.055986647567245 -48.24146416355203 -27.331716888715473 8.370690343560462 -3.8457949428773013 -0.46305225317702625 0.09053366420952084 -8.166927055190406 0.03789905449096297 0.01292725397368839 44.529933356297356 -0.04629986235132897 -0.005437144449859134 44.55322742613342 12.426021738923872 -0.03710534084968254 0.0030768622605834507 -0.013412532808376683 -0.037010933237328715 -0.025143570834898637 -0.014427657876533644 -0.024666709528933867 0.038360816879573996 11.086064258455705 0.031587653519221624 0.04145875343212612 0.04033085452552162 -0.02561850608310767 -0.014554185807549356 -0.02640578452788066 -0.02338400281000079 -0.023674325374196642 4.788530061410784 0.04845747812934041 0.04131467940022855 -0.035471631842188635 0.04284269872403576 -0.03440911645911439 0.02995682982709205 0.03049303915923237 0.005006046175862163 -5.605435031064821 -0.03567721059865215 0.03340293742321955 -6.717060450050795 -0.021481966584249543 0.0114397969449627 -6.770084990761142 0.03352657795594438 -0.006685516229738277 -0.04859363052823639 0.001510215141350379 0.04160910520963608 8.032926985163222 3.4499541200642834 -19.21781223314727 -0.012183483855032403 10.433566747227786 0.008870040720427649 -5.648276749865815 -15.655976694347336 3.1872995451428525 0.01356364572116993 0.014717443791002148 -0.04058561494979698 0.0032614863565936904 4.7217723189694105 -0.012126519198556935 12.437510857775086 -8.238670199543398 6.895324656346896 0.017410220773293773 46.42683884180923 0.004500670966603268 -4.36772424631196 -14.715893776514582 -3.854423434100435 -0.03826482134380905 -0.0474235550205584 0.027547691967103195 0.002863364622998497 -10.754760756803257 -0.04833909291581475 
-0.04192449574813442 0.021585807411852818 -0.024497818142028015 0.0005242170390472974 0.030178370286520845 -0.03017120945979673 0.8760659964041969 4.053231126736913 -1.4932279426211208 -0.5701307036094736 4.142224037530667 0.30670435917593697 -0.5423090664337739 -1.4729895203500807 0.7911604807632685 -1.4510628401333392 -0.695173471198968 -0.34035017404075585 -1.2051796786224604 12.896755961178737 1.2479787107497675 0.3677321953773489 -2.2279141187823406 2.9779578145156695 0.3135900156658914 -19.302260823465375 0.1565824793314058 -4.578722482863791 2.000576347656412 -16.339121704582716 78.53867546920189 9.592217792113846 -1.651562452676279 -0.6151575140045656 3.139978961541483 54.206893375574026 26.402329042727764 -0.3665721392086292 -2.898365037287715 4.520702539484363 -0.08851291878076573 -1.56021370731149 -0.02085595038663539 0.020384354003048236 -56.24730047552265 0.032061272752718875 0.03531478273210812 -56.19852249923927 -38.79183052795959 0.045316363698051615 -0.03214545275314608 -0.01754995412202746 -0.016293326050155585 -0.035894532066714356 -0.03395021068743518 -0.012381405733847635 -0.04971028588500439 -36.66775312893053 0.04882272333088271 -0.042870993303386014 -0.039799540944116585 -0.02723615929488342 -0.03495518291984511 -0.04033758766215044 -0.025256276831569568 -0.04575793934773785 -19.7897731886429 -0.0012331430425723405 -0.0012780690908232271 -0.03819743383677055 0.01135014966001086 -0.0298890182367895 -0.04272683070730915 0.01819947736117159 0.019508482929641215 24.09153439221115 0.02260473412119215 0.04926300923375307 28.89006098406706 0.039608788831923245 0.03205571784342461 28.81766501606836 0.0323431074143549 0.011707605259833751 7.853860708405333 1.9445395963876875 15.006230924900796 -78.79788229402374 15.820328668845136 -11.340500265985835 -0.43383649811998853 12.10484538472102 -47.17431051378468 -28.208174090312728 9.26446584884531 -4.598049229824687 -0.4818929968092827 0.11050817771304834 -8.14210853027053 0.003909095676173088 0.03815527459704129 44.55728369391686 -0.03692700330630661 -0.02434706921842589 44.58848423110224 12.48661704823069 0.019972873786943467 0.04074983780967367 0.0003242047411413683 -0.04130427067285162 -0.02389147541116324 -0.00025257018532393304 0.018439034019946475 0.003410638667409236 11.067229922221372 0.009746976690086588 -0.03853896525331376 0.003575604054503021 0.004299774753849672 0.020443784326593543 -0.012349132640564923 0.02599669987935904 0.0263735068143166 4.822344105752801 -0.023570505314674594 -0.03693816536728223 -0.026601087559143925 -0.03659529613433537 0.02762118725330378 -0.02503356323384963 0.021135095872215705 0.04432528959511692 -5.632620297638028 0.04399007208502924 -0.012466483862031873 -6.755006149689753 0.016857027518416657 -0.0427110140067129 -6.702040828247014 -0.030785196553673566 0.021126564181952974 0.0292790729242449 0.02270604672538343 -0.005119733489691002 8.04950514217288 3.471540320348124 -19.20169197685173 0.015759267560636166 10.383205232061703 -0.003865191820408044 -5.6294299107667305 -15.642359787023485 3.1440062131733315 -0.016120084501923548 -0.006668413452179849 -0.024807957364195776 0.03343678390368368 4.738889255366391 0.019717173209536323 12.473583293090757 -8.234306742130975 6.888447568695687 -0.005012836034444182 46.33393695196711 0.01090130577293577 -4.371974207094274 -14.754013355136625 -3.788328810086491 -3.551061241519705e-05 0.01914879918964468 -0.04697466842392157 0.007682226279984722 -10.76274989845397 0.045824794343070546 
0.04865003032141762 0.024367355172733158 0.03326836663356243 0.005862424750883148 -0.04610254267370419 0.007305694761508801 0.5875650271391214 4.015191374973168 -1.4359857723053306 -0.5221756978188311 4.151764234970611 0.31823733816130034 -0.6241899783023764 -1.4134907495855396 0.8147472672298165 -1.4670475241573695 -0.7503718415526733 -0.2518220709387719 -1.1615875401103668 12.764639282091641 1.2485320607296049 0.3481484774651714 -2.3231664606056697 2.9155867248207845 0.3311350812764279 -19.48876405778505 0.15415000642151336 -4.451760461785179 1.9133288797446382 -16.24286817746788 78.31540740252089 9.814844803626247 -1.6888377064189224 -1.542436483443672 2.885191565291902 55.673269028742155 27.146469150929 -0.3660350321806872 -3.0244974374879 4.5501705390093266 -0.08278758423689397 -1.585425694086663 0.032915869618309265 0.046555753333485946 -56.21257387925527 0.03126105215134936 0.014905989401338799 -56.225789607351146 -38.7415665369275 0.040233602026635756 -0.004104763704587582 -0.026788670881995102 -0.013753873438643052 -0.005731551796282822 -0.03708434230501699 -0.028183925777673053 -0.011878632170387239 -36.72269328054493 0.014867890004855442 -0.023752448076491735 0.03994113794725072 0.02120495277188919 0.036376120827443195 -0.02484225738530933 0.021212725473795182 0.009208666772476226 -19.796389480826335 -0.007678868066720666 -0.003478964224011227 -0.03278601665745706 -0.002210481966886629 0.024506021981703954 0.0035852198435634033 0.016302738081516176 -0.023600430081536287 24.041516817053147 -0.01555864873641046 -0.013479734368526723 28.85783660800246 -0.032850093027739044 -0.02807293598637762 28.833284399483826 0.025762085610155007 -0.024651115854528914 7.634862321771285 1.9197672197957698 15.033617300611024 -78.89797027324691 16.01855439143166 -10.660970989704838 -0.08570749013881686 11.355216819452995 -46.492799391169385 -28.844406797560193 9.708491473091039 -4.884981140701857 -0.49244688936235814 0.04555258071314494 -8.11695544249053 -0.010650929516410095 0.03438702520179825 44.545941418694014 -0.007173253969971405 -0.007670978685233496 44.58009645076212 12.458212965277394 0.00449176355854413 -0.009505777284235026 -0.0027460581810434628 -0.03778706927154716 -0.04079466464845421 -0.013728611498721927 -0.009636785282866139 0.04964960015593772 11.06391125981289 -0.04826663489126723 0.021614000560227928 -0.023120372625588193 -0.010016214063488987 0.0044061570618374145 -0.004256783333494943 -0.007699330286343305 0.009347217566742883 4.734712073315619 0.0454682028852419 -0.004053662361299659 0.0005057364802247635 -0.009252170525684191 0.020291524457473873 -0.020371900132261676 0.018014013923665164 -0.03929207785202249 -5.624703004858688 -0.006156576614977738 0.0037969030585840394 -6.678933240112185 0.02385093780174784 0.017102222752532016 -6.683174940717369 -0.04295800418285209 -0.009530180029414847 0.020267817875187468 0.019299833362407162 -0.044218442048516604 8.061019620102071 3.5062478917293207 -19.2425352740592 -0.04582494253568444 10.4100819620144 0.0412407448487509 -5.578827565768098 -15.67177196366201 3.144252827915411 -0.04132659852371484 -0.017070178644687115 0.015214633991417278 0.003212803049238635 4.745578149833894 -0.03218223041119913 12.439892919368644 -8.284580535221735 6.931164662937253 -0.026622217663384986 46.377278293715314 0.0010216131097129282 -4.2804984768217365 -14.716142297929476 -3.820124392554425 -0.0049837442336852205 0.0407318044386154 0.01980485172284171 -0.001435417152287451 -10.750711116778419 0.004769638960562934 
0.04239421142834224 0.002146943967154457 -0.02797656845302668 0.01749733692080931 0.04060447982238949 -0.037024967307137675 0.002644908073608187 4.04331606513058 -1.423289354094722 -0.5492397871921516 4.092630231540226 0.3540458805737611 -0.5654869398193734 -1.4493748170791543 0.7869160749302987 -1.5232061227498033 -0.7287442406747708 -0.3072370851048324 -1.174421255180222 12.682386392427436 1.262554472084574 0.38690648428325114 -2.4711057820057043 2.873937849044369 0.3696560836276865 -19.576134602037094 0.18181313771393873 -3.9648175513494928 1.8029711740379102 -16.079002104387047 78.03230372677625 9.632765773374492 -1.8730872112254926 -2.2340431485404735 3.6793076197334593 55.91689451304979 27.82224191569377 -0.33229516455044583 -2.9493813895851093 4.507967982702517 -0.0889305889480296 -1.5860842730475895 -0.01330899177959646 -0.04407833306680121 -56.24572430352942 -0.0031925143272628384 -0.03278797074477092 -56.19346963532937 -38.722678419793056 -0.016293528356217925 -0.010803595195438463 -0.012002379773465965 -0.03781602781952401 -0.03892711322466758 -0.03199419513698045 0.024434243638582 -0.032350383685847965 -36.64999366207185 -0.03807337544603448 0.008470951518358078 0.038633658089717575 -0.02737507361515446 0.030894145192388506 -0.012609296939164764 -0.028602798281904557 0.031859191650716615 -19.77436343032775 -0.02281893227191004 -0.020124834374211482 -0.034980645550558416 -0.001417578923462709 -0.018607336527987746 0.049996886744509424 0.049787458328395776 -0.02708234009650722 24.076358829281876 -0.03989218081665439 -0.0052315024451549536 28.846390130538474 0.027311752935746114 0.013915729927113098 28.822714456420822 -0.02469139543737485 0.007823955895104201 7.14625103863339 1.8218652582810535 14.96588038748716 -79.08888860136908 15.727544471736305 -9.867750021863303 0.8773230063313339 11.424650949087859 -45.177549382093005 -29.509027928544164 10.933449736929601 -5.8868823640824575 -0.5143414632339202 0.03742672161207776 -8.15077703153194 0.008228368933020008 -0.03718835412352825 44.56690849332037 -0.02920546140552367 -0.02833416326879692 44.566867679312956 12.473553050339836 0.030923429326376088 0.039108389278662184 0.015701771252251157 -0.016102942161395302 -0.01831671422882459 0.018919612255246354 0.004996362687910671 0.02015821001109129 11.12791968967582 -0.02110681584658464 -0.02213265239519481 -0.005869139888251359 0.029706151435065248 0.0012830652855831343 0.0064269570521964725 0.029901974422483487 0.0027731929779000837 4.731501478477815 -0.0491798569033989 0.03381649833447831 -0.00533533008148808 0.010412741094108122 0.016009725548158858 0.04013391230307724 -0.015297927256338065 0.012802740349887836 -5.650104877362698 0.03664181457160364 -0.004056088667905497 -6.735331174081893 0.009124068869706856 0.021616858937390758 -6.738217953005066 0.02876854083958633 -0.024995546303283763 -0.03202351282488846 -0.014630916842186547 0.019742647725296852 8.024343664766162 3.5054953305345355 -19.192438920443358 0.005896714018956738 10.365915158071958 0.05640524743347197 -5.651637734942771 -15.61434506132681 3.1900194604412935 -0.025918912830981525 0.012331261158931473 -0.04949896047473135 -0.028829764014405974 4.74387750295485 0.007577511749127436 12.46806615160566 -8.216274882799317 6.835535683134826 -0.023898779666617652 46.38226358775625 -0.0074316795934684324 -4.33830659494193 -14.718623779376525 -3.825240525226626 0.03254728260151855 -0.03677526967527174 0.014760642818117125 -0.048498922551641795 -10.739149542578494 -0.030213782279008367 
